<?xml version="1.0" encoding="UTF-8" standalone="no"?>
<!-- Created with Inkscape (http://www.inkscape.org/) -->

<svg
   xmlns:dc="http://purl.org/dc/elements/1.1/"
   xmlns:cc="http://creativecommons.org/ns#"
   xmlns:rdf="http://www.w3.org/1999/02/22-rdf-syntax-ns#"
   xmlns:svg="http://www.w3.org/2000/svg"
   xmlns="http://www.w3.org/2000/svg"
   xmlns:sodipodi="http://sodipodi.sourceforge.net/DTD/sodipodi-0.dtd"
   xmlns:inkscape="http://www.inkscape.org/namespaces/inkscape"
   width="64"
   height="64"
   viewBox="0 0 64.000001 64.000001"
   id="svg2"
   version="1.1"
   inkscape:version="0.91 r13725"
   sodipodi:docname="drawing.svg">
  <defs
     id="defs4">
    <inkscape:path-effect
       effect="spiro"
       id="path-effect3339"
       is_visible="true" />
  </defs>
  <sodipodi:namedview
     id="base"
     pagecolor="#ffffff"
     bordercolor="#666666"
     borderopacity="1.0"
     inkscape:pageopacity="0.0"
     inkscape:pageshadow="2"
     inkscape:zoom="11.2"
     inkscape:cx="31.209032"
     inkscape:cy="30.016372"
     inkscape:document-units="px"
     inkscape:current-layer="layer1"
     showgrid="false"
     units="px"
     inkscape:window-width="1916"
     inkscape:window-height="1057"
     inkscape:window-x="0"
     inkscape:window-y="19"
     inkscape:window-maximized="1" />
  <metadata
     id="metadata7">
    <rdf:RDF>
      <cc:Work
         rdf:about="">
        <dc:format>image/svg+xml</dc:format>
        <dc:type
           rdf:resource="http://purl.org/dc/dcmitype/StillImage" />
        <dc:title></dc:title>
      </cc:Work>
    </rdf:RDF>
  </metadata>
  <g
     inkscape:label="Layer 1"
     inkscape:groupmode="layer"
     id="layer1"
     transform="translate(0,-988.36216)">
    <path
       style="fill:none;fill-rule:evenodd;stroke:#000000;stroke-width:1px;stroke-linecap:butt;stroke-linejoin:miter;stroke-opacity:1"
       d="m 34.821429,1009.4157 c -0.327381,0 -0.654762,0 -0.982143,0 -0.08929,0 -0.179469,0.013 -0.267857,0 -0.121479,-0.017 -0.235665,-0.072 -0.357143,-0.089 -0.08839,-0.013 -0.178572,0 -0.267857,0 -0.14881,0 -0.297619,0 -0.446429,0 -0.119048,0 -0.238823,-0.013 -0.357143,0 -0.150828,0.017 -0.295425,0.074 -0.446428,0.089 -0.148071,0.015 -0.298358,-0.015 -0.446429,0 -1.494844,0.1495 0.74218,0.035 -0.982143,0.1786 -0.177954,0.015 -0.357759,-0.015 -0.535714,0 -0.180409,0.015 -0.356785,0.062 -0.535714,0.089 -1.493543,0.2298 0.175566,-0.044 -1.160715,0.1786 -0.178571,0.03 -0.357142,0.059 -0.535714,0.089 -0.178571,0.03 -0.355423,0.073 -0.535714,0.089 -0.148199,0.014 -0.298358,-0.015 -0.446429,0 -0.803697,0.08 -0.107612,0.079 -0.803571,0.1786 -0.08839,0.013 -0.179786,-0.015 -0.267857,0 -0.0968,0.016 -0.349277,0.1138 -0.446429,0.1786 -0.03502,0.023 -0.05952,0.059 -0.08929,0.089 -0.02976,0.03 -0.05952,0.059 -0.08929,0.089 -0.02976,0.03 -0.07598,0.049 -0.08929,0.089 -0.01882,0.056 0,0.119 0,0.1785 0,0.06 0,0.1191 0,0.1786 0,0.059 -0.01444,0.1208 0,0.1786 0.01614,0.064 0.06457,0.1168 0.08929,0.1785 0.189252,0.4732 0.02124,0.059 0.08929,0.5358 0.01735,0.1214 0.05558,0.2391 0.08929,0.3571 0.02586,0.09 0.06646,0.1766 0.08929,0.2679 0.03681,0.1472 0.05952,0.2976 0.08929,0.4464 0.02976,0.1488 0.07419,0.2954 0.08929,0.4464 0.01481,0.1481 -0.01481,0.2984 0,0.4464 0.0151,0.151 0.07555,0.2953 0.08929,0.4465 0.01617,0.1778 0,0.3571 0,0.5357 0,0.3571 0,0.7143 0,1.0714 0,1.6667 0,3.3333 0,5 0,0.089 0,0.1786 0,0.2679 0,0.089 0.01468,0.1798 0,0.2678 -0.01547,0.093 -0.07381,0.1751 -0.08929,0.2679 -0.01468,0.088 0,0.1786 0,0.2678 0,0.06 -0.01167,0.1202 0,0.1786 0.01846,0.092 0.06646,0.1766 0.08929,0.2679 0.02165,0.087 -0.02165,0.1812 0,0.2678 0.01614,0.065 0.05237,0.1232 0.08929,0.1786 0.01635,0.024 0.24904,0.2616 0.267857,0.2679 0.112938,0.038 0.241649,-0.029 0.357143,0 0.06456,0.016 0.112021,0.089 0.178571,0.089 0.09411,0 0.175022,-0.074 0.267857,-0.089 0.205499,-0.034 0.417941,0.023 0.625,0 0.301657,-0.034 0.59424,-0.1243 0.892857,-0.1786 1.092689,-0.1987 -0.0498,-0 1.160715,-0.089 0.209913,-0.015 0.415086,-0.074 0.625,-0.089 0.207804,-0.015 0.417128,0.014 0.625,0 0.239416,-0.016 0.474805,-0.074 0.714285,-0.089 0.475264,-0.03 0.953309,0.03 1.428572,0 0.239481,-0.015 0.474805,-0.074 0.714286,-0.089 0.445559,-0.028 0.893845,0.03 1.339285,0 0.239417,-0.016 0.474805,-0.074 0.714286,-0.089 0.237632,-0.015 0.476718,0.016 0.714286,0 0.419964,-0.028 0.830172,-0.1485 1.25,-0.1785 1.516853,0 -0.198177,0.034 1.160714,-0.089 0.600198,-0.055 0.327381,0.065 0.982143,0 0.122102,-0.012 0.235379,-0.074 0.357143,-0.089 0.118128,-0.015 0.238095,0 0.357143,0 0.208333,0 0.416666,0 0.625,0 0.08928,0 0.178571,0 0.267857,0 0.05952,0 0.120825,0.014 0.178571,0 0.06456,-0.016 0.115437,-0.068 0.178572,-0.089 0.164929,-0.055 0.04233,0.1363 0.267857,-0.089 0.02105,-0.021 -0.01331,-0.063 0,-0.089 0.01882,-0.038 0.07046,-0.052 0.08928,-0.089 0.02563,-0.051 -0.019,-0.3705 0,-0.4465 0.01614,-0.064 0.07315,-0.114 0.08929,-0.1785 0.01444,-0.058 0,-0.1191 0,-0.1786 0,-0.089 0,-0.1786 0,-0.2679 0,-0.4166 0,-0.8333 0,-1.25 0,-0.3274 0,-0.6547 0,-0.9821 0,-0.1488 -0.01236,-0.2981 0,-0.4464 0.01748,-0.2098 0.07314,-0.4152 0.08929,-0.625 0.02967,-0.3858 -0.02967,-0.775 0,-1.1608 0.01389,-0.1805 0.0754,-0.3552 0.08929,-0.5357 0.02967,-0.3857 -0.02968,-0.7749 0,-1.1607 0.01614,-0.2098 0.07314,-0.4152 0.08928,-0.625 0.0137,-0.178 0,-0.3571 0,-0.5357 0,-0.1786 0,-0.3571 0,-0.5357 0,-0.1786 0,-0.3572 0,-0.5357 0,-0.1786 0.01483,-0.3578 0,-0.5357 -0.01503,-0.1805 -0.07425,-0.3553 -0.08928,-0.5358 -0.01483,-0.1779 0.01617,-0.3578 0,-0.5357 -0.01374,-0.1511 -0.06214,-0.2971 -0.08929,-0.4464 -0.09692,-0.5331 -0.0683,-0.4859 -0.178572,-0.9821 -0.02662,-0.1198 -0.05952,-0.2381 -0.08928,-0.3572 -0.02976,-0.119 -0.04095,-0.2443 -0.08929,-0.3571 -0.04227,-0.099 -0.130582,-0.1719 -0.178571,-0.2679 -0.03487,-0.07 -0.100556,-0.3684 -0.178572,-0.4464 -0.04706,-0.047 -0.123199,-0.052 -0.178571,-0.089 -0.03502,-0.023 -0.04936,-0.076 -0.08929,-0.089 -0.161976,-0.054 -0.218291,0.034 -0.357143,0.089 -0.08738,0.035 -0.178571,0.06 -0.267857,0.089 -0.550157,0.1834 0.03698,-0.026 -0.625,0.2678 -0.146459,0.065 -0.303076,0.1069 -0.446429,0.1786 -0.155219,0.078 -0.286237,0.2011 -0.446428,0.2679 -0.200003,0.083 -0.416667,0.119 -0.625,0.1785 -0.311631,0.089 -1.03705,0.3038 -1.339286,0.3572 -0.265404,0.047 -0.53633,0.054 -0.803571,0.089 -0.417362,0.054 -0.829538,0.1594 -1.25,0.1785 -0.239701,0.011 -0.47467,-0.077 -0.714286,-0.089 -0.683578,-0.036 -1.369694,0.03 -2.053571,0 -0.205877,-0.01 -1.632376,-0.1544 -1.875,-0.1786"
       id="path3345"
       inkscape:connector-curvature="0" />
    <path
       style="fill:none;fill-rule:evenodd;stroke:#000000;stroke-width:1px;stroke-linecap:butt;stroke-linejoin:miter;stroke-opacity:1"
       d="m 25.178571,1023.1657 c -0.155848,-0.1942 -0.360084,-0.045 -0.535714,-0.089 -0.06456,-0.016 -0.113314,-0.076 -0.178571,-0.089 -0.08755,-0.018 -0.179786,0.015 -0.267857,0 -0.09283,-0.015 -0.174688,-0.076 -0.267858,-0.089 -0.117851,-0.017 -0.239014,0.015 -0.357142,0 -0.121764,-0.015 -0.235182,-0.076 -0.357143,-0.089 -0.1479,-0.016 -0.298358,0.015 -0.446429,0 -0.151003,-0.015 -0.295295,-0.076 -0.446428,-0.089 -0.177838,-0.016 -0.357669,0.014 -0.535715,0 -0.209828,-0.016 -0.415086,-0.074 -0.625,-0.089 -0.207804,-0.015 -0.417128,0.014 -0.625,0 -0.239416,-0.016 -0.474751,-0.075 -0.714285,-0.089 -0.53479,-0.031 -1.072254,0.03 -1.607143,0 -0.269091,-0.015 -0.534481,-0.074 -0.803572,-0.089 -0.267444,-0.015 -0.535714,0 -0.803571,0 -0.535714,0 -1.071429,0 -1.607143,0 -0.267857,0 -0.535714,0 -0.803571,0 -0.267858,0 -0.536177,-0.016 -0.803572,0 -0.239534,0.014 -0.474751,0.075 -0.714286,0.089 -0.505079,0.03 -1.013025,-0.034 -1.517857,0 -0.209982,0.014 -0.415017,0.075 -0.625,0.089 -0.237568,0.016 -0.476795,-0.017 -0.7142854,0 -0.1805745,0.013 -0.355305,0.074 -0.5357143,0.089 -0.1779546,0.015 -0.3577597,-0.015 -0.5357143,0 -0.328378,0.027 -0.5826709,0.101 -0.8928571,0.1786 -0.1190476,0.03 -0.2356647,0.072 -0.3571429,0.089 -0.088388,0.013 -0.1797862,-0.015 -0.2678571,0 -0.1654959,0.027 -0.300701,0.1057 -0.4464286,0.1785 -0.059524,0.03 -0.1154369,0.068 -0.1785714,0.089 -0.1108412,0.037 -0.097281,-0.073 -0.1785715,0.089 -0.01331,0.027 0.01331,0.063 0,0.089 -0.018823,0.038 -0.070463,0.052 -0.089286,0.089 -0.01331,0.027 0,0.059 0,0.089 0,0.059 0.018823,0.1221 0,0.1785 -0.01331,0.04 -0.070463,0.052 -0.089286,0.089 -0.01331,0.027 0,0.06 0,0.089 0,0.03 -0.00941,0.061 0,0.089 0.021045,0.063 0.073145,0.114 0.089286,0.1786 0.014437,0.058 0,0.119 0,0.1785 0,0.06 0,0.1191 0,0.1786 0,0.2084 0,0.4167 0,0.625 0,0.2976 0,0.5953 0,0.8929 0,0.119 0.013147,0.2388 0,0.3571 -0.016759,0.1508 -0.074185,0.2954 -0.089286,0.4464 -0.014807,0.1481 0,0.2977 0,0.4465 0,0.4762 0,0.9524 0,1.4285 0,1.0417 0,2.0834 0,3.125 0,1.1012 0,2.2024 0,3.3036 0,0.4464 0,0.8929 0,1.3393 0,0.076 -0.016407,0.4865 0,0.5357 0.01331,0.04 0.075976,0.049 0.089286,0.089 0.013613,0.041 -0.019865,0.3174 0,0.3571 0.018823,0.038 0.070463,0.052 0.089286,0.089 0.01331,0.027 -0.00941,0.061 0,0.089 0.021045,0.063 0.068241,0.1155 0.089286,0.1786 0.00941,0.028 -0.01331,0.063 0,0.089 0.027067,0.054 0.3284637,0.3189 0.3571428,0.3571 0.03993,0.053 0.042228,0.1315 0.089286,0.1786 0.075878,0.076 0.1840636,0.1115 0.2678572,0.1786 0.1643326,0.1314 0.2847576,0.3117 0.4464285,0.4464 0.082436,0.069 0.180537,0.1162 0.2678572,0.1786 0.1210913,0.087 0.2309526,0.189 0.3571429,0.2678 0.2224423,0.1391 0.5683832,0.2631 0.8035714,0.3572 0.1488095,0.06 0.2929151,0.1325 0.4464286,0.1785 0.1466362,0.044 0.866135,0.1608 0.982143,0.1786 0.208002,0.032 0.415087,0.074 0.625,0.089 0.207804,0.015 0.417196,-0.015 0.625,0 0.209914,0.015 0.414552,0.089 0.625,0.089 0.239948,0 0.474805,-0.074 0.714286,-0.089 0.237632,-0.015 0.478029,0.03 0.714286,0 0.243528,-0.03 0.47619,-0.119 0.714285,-0.1786 0.238096,-0.06 0.476191,-0.119 0.714286,-0.1785 0.238095,-0.06 0.481457,-0.101 0.714286,-0.1786 0.215027,-0.072 0.414551,-0.1837 0.624999,-0.2679 0.236098,-0.094 0.478187,-0.1734 0.714286,-0.2678 0.957098,-0.3829 0.291385,-0.1345 1.160714,-0.5357 0.205798,-0.095 0.419202,-0.1729 0.625,-0.2679 0.181273,-0.084 0.353961,-0.1852 0.535714,-0.2679 0.427001,-0.194 0.881603,-0.3447 1.339286,-0.4464 0.387924,-0.086 0.777984,-0.1585 1.160714,-0.2678 0.180989,-0.052 0.350045,-0.1477 0.535714,-0.1786 0.08807,-0.015 0.179787,0.015 0.267858,0 0.181664,0.031 0.289268,-0.1472 0.446428,-0.1786 0.08755,-0.018 0.179786,0.015 0.267857,0 0.09284,-0.015 0.175023,-0.074 0.267857,-0.089 0.08807,-0.015 0.180306,0.017 0.267858,0 0.06526,-0.013 0.113314,-0.076 0.178571,-0.089 0.14592,-0.029 0.297619,0 0.446429,0 0.05952,0 0.120824,0.014 0.178571,0 0.06456,-0.016 0.115437,-0.068 0.178571,-0.089 0.02823,-0.01 0.06267,0.013 0.08929,0 0.03765,-0.019 0.05952,-0.06 0.08929,-0.089 0.02976,-0.03 0.05952,-0.06 0.08929,-0.089 0.02976,-0.03 0.05952,-0.06 0.08929,-0.089 0.02976,-0.03 0.07598,-0.049 0.08929,-0.089 0.01882,-0.057 -0.01444,-0.1208 0,-0.1786 0.01614,-0.065 0.07623,-0.1133 0.08929,-0.1785 0.03502,-0.1751 -0.02525,-0.359 0,-0.5358 0.01735,-0.1214 0.07573,-0.2351 0.08929,-0.3571 0.01643,-0.1479 0,-0.2976 0,-0.4464 0,-0.1786 0.01483,-0.3578 0,-0.5357 -0.01503,-0.1804 -0.0754,-0.3553 -0.08929,-0.5358 -0.01598,-0.2077 0.01386,-0.4171 0,-0.625 -0.01596,-0.2394 -0.07432,-0.4748 -0.08929,-0.7142 -0.01485,-0.2377 0.01485,-0.4767 0,-0.7143 -0.01497,-0.2395 -0.06125,-0.476 -0.08929,-0.7143 -0.03149,-0.2677 -0.05952,-0.5357 -0.08929,-0.8036 -0.08928,-0.8035 -0.173398,-1.6078 -0.267858,-2.4107 -0.02804,-0.2383 -0.07432,-0.4748 -0.08929,-0.7143 -0.01485,-0.2376 0.01485,-0.4766 0,-0.7143 -0.01497,-0.2394 -0.07432,-0.4748 -0.08929,-0.7143 -0.01485,-0.2376 0,-0.4761 0,-0.7142 0,-0.4167 0,-0.8334 0,-1.25"
       id="path3347"
       inkscape:connector-curvature="0" />
    <path
       style="fill:none;fill-rule:evenodd;stroke:#000000;stroke-width:1px;stroke-linecap:butt;stroke-linejoin:miter;stroke-opacity:1"
       d="m 41.517857,1020.6657 c -0.09871,0.1316 -0.294808,0.3487 -0.357143,0.5357 -0.0094,0.028 0,0.06 0,0.089 0,0.059 0,0.1191 0,0.1786 0,0.1488 0,0.2976 0,0.4464 0,0.089 -0.01263,0.1795 0,0.2679 0.01735,0.1215 0.07407,0.2354 0.08929,0.3571 0.01477,0.1182 -0.01315,0.2388 0,0.3572 0.01676,0.1508 0.05952,0.2976 0.08929,0.4464 0.05952,0.2976 0.09871,0.6 0.178571,0.8929 0.04953,0.1816 0.147627,0.35 0.178572,0.5357 0.02936,0.1761 -0.01483,0.3577 0,0.5357 0.01503,0.1804 0.06176,0.3568 0.08928,0.5357 0.032,0.208 0.05952,0.4167 0.08929,0.625 0.254796,1.7836 0.459497,3.5736 0.714286,5.3571 0.05952,0.4167 0.109376,0.8349 0.178571,1.25 0.02495,0.1497 0.07555,0.2953 0.08929,0.4465 0.01617,0.1778 0,0.3571 0,0.5357 0,0.2678 0,0.5357 0,0.8036 0,0.2381 0,0.4761 0,0.7142 0,0.089 0.01468,0.1798 0,0.2679 -0.03095,0.1857 -0.141656,0.3511 -0.178571,0.5357 -0.01167,0.058 0.02662,0.1253 0,0.1786 -0.03765,0.075 -0.128064,0.1112 -0.178572,0.1786 -0.03993,0.053 -0.05237,0.1232 -0.08929,0.1785 -0.04669,0.07 -0.131877,0.1086 -0.178571,0.1786 -0.03692,0.055 -0.04223,0.1315 -0.08929,0.1786 -0.04706,0.047 -0.123199,0.052 -0.178571,0.089 -0.103022,0.069 -0.164835,0.1991 -0.267857,0.2678 -0.05537,0.037 -0.131514,0.042 -0.178572,0.089 -0.04706,0.047 -0.05237,0.1232 -0.08928,0.1786 -0.02335,0.035 -0.05952,0.06 -0.08929,0.089 -0.02976,0.03 -0.05427,0.066 -0.08929,0.089 -0.05537,0.037 -0.131514,0.042 -0.178571,0.089 -0.04706,0.047 -0.05237,0.1232 -0.08929,0.1786 -0.08189,0.1228 -0.137743,0.092 -0.267857,0.1786 -0.03502,0.023 -0.05427,0.066 -0.08929,0.089 -0.05537,0.037 -0.123199,0.052 -0.178571,0.089 -0.03502,0.023 -0.04936,0.076 -0.08929,0.089 -0.05647,0.019 -0.120825,-0.014 -0.178571,0 -0.06456,0.016 -0.119048,0.06 -0.178572,0.089 -0.08929,0.03 -0.175569,0.071 -0.267857,0.089 -0.05837,0.012 -0.119048,0 -0.178571,0 -0.208334,0 -0.416667,0 -0.625,0 -0.267858,0 -0.535715,0 -0.803572,0 -0.148809,0 -0.29823,0.014 -0.446428,0 -0.180292,-0.016 -0.357143,-0.06 -0.535715,-0.089 -0.357143,-0.06 -0.714285,-0.119 -1.071428,-0.1785 -0.178572,-0.03 -0.355213,-0.075 -0.535715,-0.089 -0.207719,-0.016 -0.41728,0.016 -0.625,0 -0.180501,-0.014 -0.356784,-0.062 -0.535714,-0.089 -0.208001,-0.032 -0.416667,-0.059 -0.625,-0.089 -0.208333,-0.03 -0.415086,-0.074 -0.625,-0.089 -0.207804,-0.015 -0.416667,0 -0.625,0 -0.208333,-0.03 -0.415171,-0.073 -0.625,-0.089 -0.356091,-0.027 -0.715519,0.03 -1.071428,0 -0.18041,-0.015 -0.355424,-0.073 -0.535715,-0.089 -0.148198,-0.013 -0.297619,0 -0.446428,0 -0.297619,0 -0.595238,0 -0.892857,0 -0.267858,0 -0.535715,0 -0.803572,0 -0.08929,0 -0.179469,-0.013 -0.267857,0 -0.121478,0.017 -0.235665,0.072 -0.357143,0.089 -0.176777,0.025 -0.359572,-0.029 -0.535714,0 -0.09284,0.015 -0.17557,0.071 -0.267857,0.089 -0.141351,0.028 -0.402054,-0.033 -0.535715,0 -0.06456,0.016 -0.115437,0.068 -0.178571,0.089 -0.05269,0.018 -0.396542,0 -0.446429,0 -0.02976,0 -0.06267,-0.013 -0.08929,0 -0.03765,0.019 -0.05164,0.071 -0.08929,0.089 -0.05612,0.028 -0.301025,-0.028 -0.357143,0 -0.03765,0.019 -0.05164,0.07 -0.08929,0.089 -0.02662,0.013 -0.05952,0 -0.08929,0 -0.02976,0 -0.06824,0.021 -0.08929,0 -0.02105,-0.021 0,-0.06 0,-0.089 0,-0.03 -0.0094,-0.061 0,-0.089 0.02105,-0.063 0.06824,-0.1154 0.08929,-0.1786 0.0094,-0.028 -0.01331,-0.063 0,-0.089 0.01882,-0.038 0.07598,-0.049 0.08929,-0.089 0.02824,-0.085 -0.02823,-0.1832 0,-0.2679 0.02105,-0.063 0.07315,-0.114 0.08929,-0.1786 0.02887,-0.1155 -0.02887,-0.2416 0,-0.3571 0.01614,-0.065 0.07315,-0.114 0.08929,-0.1786 0.01444,-0.058 0,-0.119 0,-0.1786 0,-0.1785 0,-0.3571 0,-0.5357 0,-0.089 -0.01263,-0.1794 0,-0.2678 0.01735,-0.1215 0.07406,-0.2354 0.08929,-0.3572 0.01477,-0.1181 0,-0.2381 0,-0.3571 0,-0.2679 0,-0.5357 0,-0.8036 0,-0.4167 0,-0.8333 0,-1.25 0,-0.1786 0.01617,-0.3579 0,-0.5357 -0.01374,-0.1511 -0.07418,-0.2954 -0.08929,-0.4464 -0.01481,-0.1481 0,-0.2976 0,-0.4465 0,-0.2976 0,-0.5952 0,-0.8928 0,-0.1488 0.01481,-0.2984 0,-0.4464 -0.01508,-0.1511 -0.07417,-0.2955 -0.08927,-0.4465 -0.01481,-0.1481 0,-0.2976 0,-0.4464 0,-0.1488 0,-0.2976 0,-0.4464 0,-0.5358 0,-1.0715 0,-1.6072 0,-0.3869 0,-0.7738 0,-1.1607 0,-0.089 0,-0.1786 0,-0.2679 0,-0.119 -0.01684,-0.2392 0,-0.3571 0.01331,-0.093 0.07083,-0.1756 0.08929,-0.2679 0.01167,-0.058 0,-0.119 0,-0.1785 0,-0.089 -0.01751,-0.1803 0,-0.2679 0.01305,-0.065 0.07315,-0.114 0.08929,-0.1786 0.01444,-0.058 -0.01882,-0.1221 0,-0.1785 0.01331,-0.04 0.05952,-0.059 0.08929,-0.089 0.02976,-0.06 0.06824,-0.1155 0.08929,-0.1786 0.0094,-0.028 -0.01331,-0.063 0,-0.089 0.01882,-0.038 0.07046,-0.052 0.08929,-0.089 0.131375,-0.2627 -0.206838,0.1176 0.08929,-0.1785 0.296124,-0.2962 -0.04209,0.084 0.08929,-0.1786 0.01882,-0.038 0.07046,-0.052 0.08929,-0.089 0.03571,-0.071 -0.03571,-0.1964 0,-0.2678 0.01882,-0.038 0.07046,-0.052 0.08929,-0.089 0.0177,-0.035 -0.01825,-0.2496 0,-0.2679 0.02104,-0.021 0.06824,0.021 0.08929,0 0.02105,-0.021 -0.01331,-0.063 0,-0.089 0.04706,-0.094 0.131513,-0.084 0.178572,-0.1786 0.01331,-0.027 -0.01331,-0.063 0,-0.089 0.09871,-0.1975 0.05541,-0.028 0.178571,-0.089 0.220661,-0.1104 -0.03082,-0.089 0.178571,-0.089"
       id="path3349"
       inkscape:connector-curvature="0" />
    <path
       style="fill:none;fill-rule:evenodd;stroke:#000000;stroke-width:1px;stroke-linecap:butt;stroke-linejoin:miter;stroke-opacity:1"
       d="m 41.964286,1021.7372 c 0.386016,0.096 0.234431,0.089 0.446428,0.089 0.535715,0 1.071429,0 1.607143,0 0.178572,0 0.357143,0 0.535715,0 0.08928,0 0.179468,-0.013 0.267857,0 0.121478,0.017 0.235379,0.074 0.357143,0.089 1.357065,0.1697 -0.840797,-0.2396 0.803571,0.089 0.14881,0.03 0.297619,0.059 0.446429,0.089 0.148809,0.03 0.295295,0.076 0.446428,0.089 1.316469,0.1197 -0.24842,-0.1507 1.071429,0.089 0.149308,0.027 0.29712,0.062 0.446428,0.089 0.356229,0.065 0.7152,0.1138 1.071429,0.1785 0.327381,0.06 0.654762,0.1191 0.982143,0.1786 0.149308,0.027 0.2956,0.072 0.446428,0.089 0.11832,0.013 0.238824,-0.013 0.357143,0 0.424838,0.047 0.825163,0.2206 1.25,0.2679 0.11832,0.013 0.239292,-0.017 0.357143,0 0.09317,0.013 0.177363,0.063 0.267857,0.089 0.11799,0.034 0.235665,0.072 0.357143,0.089 0.08839,0.013 0.178571,0 0.267857,0 0.08929,0.03 0.175022,0.074 0.267857,0.089 0.08807,0.015 0.180306,-0.017 0.267857,0 0.06526,0.013 0.113315,0.076 0.178572,0.089 0.14592,0.029 0.302062,-0.036 0.446428,0 0.06456,0.016 0.114009,0.073 0.178572,0.089 0.155022,0.039 0.380692,-0.039 0.535714,0 0.06456,0.016 0.115437,0.068 0.178572,0.089 0.07118,0.024 0.424833,-0.022 0.446428,0 0.02105,0.021 -0.02105,0.068 0,0.089 0.04209,0.042 0.136482,-0.042 0.178572,0 0.02104,0.021 -0.02105,0.068 0,0.089 0.04209,0.042 0.125331,-0.027 0.178571,0 0.03765,0.019 0.05164,0.071 0.08929,0.089 0.01219,0.01 0.52352,0.01 0.535714,0 0.03765,-0.019 0.05164,-0.07 0.08929,-0.089 0.02662,-0.013 0.05952,0 0.08928,0 0.05952,0 0.122103,0.019 0.178572,0 0.07986,-0.027 0.09871,-0.1519 0.178571,-0.1785 0.05647,-0.019 0.122102,0.019 0.178572,0 0.07986,-0.027 0.09871,-0.152 0.178571,-0.1786 0.05647,-0.019 0.122102,0.019 0.178572,0 0.07986,-0.027 0.09871,-0.152 0.178571,-0.1786 0.05647,-0.019 0.122102,0.019 0.178571,0 0.03993,-0.013 0.05164,-0.07 0.08929,-0.089 0.02662,-0.013 0.06267,0.013 0.08929,0 0.03765,-0.019 0.05164,-0.07 0.08929,-0.089 0.05324,-0.027 0.136481,0.042 0.178571,0 0.119048,-0.1191 -0.14881,-0.089 0.08929,-0.089 0.209391,0 -0.04209,0.021 0.178571,-0.089 0.02662,-0.013 0.05952,0 0.08929,0 0.02976,0 0.05952,0 0.08929,0 0.02976,0 0.06824,-0.021 0.08928,0 0.02105,0.021 0,0.059 0,0.089 0,0.089 0.02166,0.1812 0,0.2678 -0.01614,0.065 -0.07314,0.114 -0.08928,0.1786 -0.01444,0.058 0,0.119 0,0.1786 0,0.1785 0,0.3571 0,0.5357 0,0.9507 0.02335,-0.3228 -0.08929,0.8036 -0.01481,0.148 0,0.2976 0,0.4464 0,0.1786 0,0.3571 0,0.5357 0,0.2083 0.01598,0.4173 0,0.625 -0.01389,0.1805 -0.07639,0.3551 -0.08929,0.5357 -0.01696,0.2375 0,0.4762 0,0.7143 0,0.2083 -0.01386,0.4171 0,0.625 0.01596,0.2394 0.07432,0.4748 0.08929,0.7143 0.0297,0.4752 -0.03168,0.9534 0,1.4286 0.014,0.2099 0.07529,0.415 0.08929,0.625 0.01584,0.2375 -0.01584,0.4767 0,0.7142 0.014,0.21 0.07429,0.4151 0.08928,0.625 0.01484,0.2078 0,0.4167 0,0.625 0.02976,0.2084 0.07315,0.4152 0.08929,0.625 0.02739,0.3561 -0.03233,0.7158 0,1.0715 0.01374,0.1511 0.07418,0.2954 0.08929,0.4464 0.01481,0.1481 0,0.2976 0,0.4464 0,0.4465 0,0.8929 0,1.3393 0,0.1786 0,0.3572 0,0.5357 0,0.089 0,0.1786 0,0.2679 0,0.06 0.01444,0.1208 0,0.1786 -0.01614,0.065 -0.07315,0.114 -0.08929,0.1785 -0.01444,0.058 0.01444,0.1208 0,0.1786 -0.01614,0.065 -0.06824,0.1154 -0.08929,0.1786 -0.0094,0.028 0.0094,0.061 0,0.089 -0.02105,0.063 -0.06824,0.1154 -0.08928,0.1785 -0.0094,0.028 0.01331,0.063 0,0.089 -0.01882,0.038 -0.07046,0.052 -0.08929,0.089 -0.01331,0.027 0.01331,0.063 0,0.089 -0.01882,0.038 -0.05952,0.06 -0.08929,0.089 -0.02976,0.03 -0.05164,0.07 -0.08929,0.089 -0.02662,0.013 -0.06824,-0.021 -0.08928,0 -0.02105,0.021 0.01331,0.063 0,0.089 -0.0085,0.017 -0.340052,0.3486 -0.357143,0.3572 -0.02662,0.013 -0.06267,-0.013 -0.08929,0 -0.07914,0.04 -0.186579,0.2137 -0.267857,0.2678 -0.05537,0.037 -0.123199,0.052 -0.178571,0.089 -0.03502,0.023 -0.04936,0.076 -0.08929,0.089 -0.05647,0.019 -0.120204,-0.012 -0.178572,0 -0.09229,0.019 -0.175569,0.071 -0.267857,0.089 -0.05837,0.012 -0.119857,-0.01 -0.178571,0 -0.121042,0.02 -0.235379,0.074 -0.357143,0.089 -0.118128,0.015 -0.238095,0 -0.357143,0 -0.119047,0 -0.238095,0 -0.357143,0 -0.148809,0 -0.298357,-0.015 -0.446428,0 -0.151004,0.015 -0.295296,0.076 -0.446429,0.089 -0.177838,0.016 -0.357143,0 -0.535714,0 -0.208333,0 -0.417128,0.014 -0.625,0 -0.239417,-0.016 -0.474869,-0.073 -0.714286,-0.089 -0.44544,-0.03 -0.893627,0.026 -1.339286,0 -2.14947,-0.2388 0.539011,0.03 -1.607142,-0.089 -0.269091,-0.015 -0.535715,-0.06 -0.803572,-0.089 -0.297619,-0.03 -0.594167,-0.073 -0.892857,-0.089 -0.267487,-0.014 -0.536127,0.015 -0.803571,0 -0.269091,-0.015 -0.534439,-0.075 -0.803572,-0.089 -0.297208,-0.016 -0.595649,0.016 -0.892857,0 -0.538278,-0.028 -1.069074,-0.1469 -1.607155,-0.1785 -0.237684,-0.014 -0.476601,0.014 -0.714286,0 -0.26904,-0.016 -0.534531,-0.073 -0.803571,-0.089 -0.237684,-0.014 -0.476191,0 -0.714286,0 -0.47619,0 -0.952381,0 -1.428571,0 -0.208334,0 -0.416667,0 -0.625,0 -0.208334,0 -0.417386,-0.017 -0.625,0 -0.151233,0.013 -0.297619,0.06 -0.446429,0.089"
       id="path3351"
       inkscape:connector-curvature="0" />
    <path
       style="fill:#800080"
       d="M 11.539389,51.499767 C 9.6149155,51.364735 8.6533198,50.976893 7.5430661,49.887924 6.7471065,49.107224 6.7625718,49.218286 6.7627864,44.284387 c 1.005e-4,-2.3114 0.026732,-5.261002 0.059181,-6.554672 l 0.058999,-2.352128 0.2756399,-0.116583 c 0.4725818,-0.199882 1.8253668,-0.399015 3.2667114,-0.480868 4.829849,-0.274286 10.50014,-0.143222 13.388454,0.309461 0.800029,0.125388 1.12024,0.21546 0.765974,0.21546 -0.15369,0 -0.158441,0.186601 -0.104008,4.084821 0.03137,2.246652 0.08222,4.853772 0.112993,5.793599 0.03077,0.939829 0.02774,1.972192 -0.0067,2.294142 l -0.06269,0.585365 -0.506818,0.09913 c -0.27875,0.05452 -0.828247,0.179802 -1.221104,0.278398 -0.392857,0.0986 -1.186068,0.296219 -1.76269,0.43916 -0.735557,0.182339 -1.508209,0.469086 -2.589286,0.960933 -2.130101,0.969112 -2.570694,1.139574 -3.594452,1.39066 -0.883455,0.216675 -2.346956,0.335622 -3.303572,0.268501 l -10e-7,0 z"
       id="path3388"
       inkscape:connector-curvature="0"
       transform="translate(0,988.36216)" />
    <path
       style="fill:#800080"
       d="m 36.271532,49.851395 c -3.273813,-0.500596 -6.811249,-0.719222 -8.769842,-0.542008 -0.676587,0.06122 -1.400917,0.134774 -1.609622,0.163458 -0.365498,0.05023 -0.379464,0.04329 -0.379464,-0.188582 0,-0.157535 0.09199,-0.31814 0.26617,-0.464703 0.146394,-0.123182 0.304673,-0.371704 0.351731,-0.552271 0.274674,-1.053957 0.189484,-3.440936 -0.266383,-7.463907 -0.144228,-1.272797 -0.262233,-2.663895 -0.262233,-3.091329 0,-0.773502 0.0706,-1.026887 0.496475,-1.781996 0.06924,-0.122768 0.126485,-0.288505 0.127209,-0.368304 0.0014,-0.159714 0.341831,-0.256696 0.900939,-0.256696 0.187874,0 0.534414,-0.03665 0.77009,-0.08145 0.705197,-0.134043 2.317425,-0.282108 3.553502,-0.32635 2.604756,-0.09323 3.08815,-0.113822 3.979574,-0.16952 0.512127,-0.032 1.21239,-0.09677 1.55614,-0.143927 0.34375,-0.04716 1.026786,-0.101098 1.517857,-0.119857 0.491072,-0.01876 1.174107,-0.06292 1.517857,-0.09813 l 0.625,-0.06402 0.209438,0.970377 c 0.115191,0.533707 0.241545,1.211448 0.280789,1.506091 0.03924,0.294643 0.304067,2.203125 0.588496,4.241071 0.371988,2.66531 0.526918,4.067234 0.551967,4.994606 0.04862,1.800103 0.01223,1.903031 -1.027225,2.905486 -0.459245,0.442896 -0.983791,0.874525 -1.165657,0.959175 -0.448731,0.208862 -2.35803,0.195234 -3.812808,-0.02721 z"
       id="path3390"
       inkscape:connector-curvature="0"
       transform="translate(0,988.36216)" />
    <path
       style="fill:#800080"
       d="m 26.494746,34.010414 c 0,-0.243414 -0.0931,-0.275238 -0.370659,-0.126695 -0.09919,0.05309 -0.197402,0.07947 -0.218244,0.05862 -0.02084,-0.02084 -0.04766,-2.08325 -0.0596,-4.583126 -0.02061,-4.317453 -0.03124,-4.581027 -0.211981,-5.259517 -0.329423,-1.236617 -0.381368,-1.514441 -0.29884,-1.598314 0.09263,-0.09414 0.636607,-0.196071 1.695038,-0.317609 0.41741,-0.04793 1.241071,-0.168091 1.830357,-0.267023 0.589286,-0.09893 1.29984,-0.180607 1.579009,-0.181501 0.279169,-8.94e-4 0.620687,-0.04578 0.758928,-0.09974 0.156825,-0.06122 0.963269,-0.09539 2.144417,-0.09087 2.862503,0.01095 4.645536,-0.301206 6.321217,-1.106665 1.148353,-0.551985 1.14307,-0.551326 1.327084,-0.165445 0.527754,1.106709 0.681527,3.533316 0.467634,7.379431 -0.07861,1.413568 -0.142932,2.989316 -0.142932,3.501662 0,0.757521 -0.02313,0.922665 -0.123812,0.884029 -0.1742,-0.06685 -0.509825,0.437253 -0.565001,0.84862 l -0.0457,0.340716 -0.681851,0.0585 c -0.375018,0.03217 -1.103726,0.07896 -1.619351,0.103965 -0.515625,0.02501 -1.158482,0.08271 -1.428572,0.128229 -0.270089,0.04552 -1.515625,0.125251 -2.767857,0.177184 -1.252232,0.05193 -2.919643,0.139315 -3.705357,0.194181 -0.785714,0.05487 -1.569196,0.107278 -1.741071,0.116472 -0.171875,0.0092 -0.623783,0.0721 -1.00424,0.139786 -0.658337,0.117126 -0.698079,0.114685 -0.823053,-0.05055 -0.118715,-0.156965 -0.131586,-0.158632 -0.134154,-0.01737 -0.0045,0.247023 -0.181411,0.181716 -0.181411,-0.06696 z"
       id="path3392"
       inkscape:connector-curvature="0"
       transform="translate(0,988.36216)" />
    <path
       style="fill:#800080"
       d="m 53.325104,51.49227 c -0.392857,-0.01477 -1.357143,-0.06833 -2.142857,-0.119025 -0.785715,-0.05069 -2.372768,-0.151714 -3.526786,-0.224486 -1.154018,-0.07277 -2.580357,-0.169267 -3.169643,-0.214433 -0.589286,-0.04517 -1.694196,-0.08724 -2.455357,-0.0935 -0.849333,-0.007 -1.312073,-0.04044 -1.197913,-0.08662 0.102308,-0.04139 0.423737,-0.303447 0.714285,-0.582359 0.290549,-0.278913 0.628717,-0.594109 0.751485,-0.700437 0.42104,-0.36466 0.810074,-0.941552 0.947883,-1.405606 0.10831,-0.364721 0.130166,-0.79231 0.101821,-1.992041 -0.02914,-1.233487 -0.135486,-2.241108 -0.552287,-5.232993 -0.283907,-2.037946 -0.547557,-3.946429 -0.585887,-4.241071 -0.03833,-0.294643 -0.159886,-0.933372 -0.270123,-1.419397 l -0.200431,-0.883681 0.212548,-0.16344 c 0.181856,-0.13984 0.389187,-0.163727 1.435831,-0.165426 0.672806,-0.0011 1.41611,0.0355 1.651786,0.08132 0.235676,0.04582 0.890555,0.149264 1.455288,0.229879 2.127317,0.303671 5.759352,0.887325 6.396356,1.027869 0.203263,0.04485 0.966656,0.16515 1.696428,0.267341 0.729773,0.10219 1.476396,0.249752 1.659165,0.327915 0.527733,0.22569 1.316059,0.12187 2.109803,-0.277853 l 0.655025,-0.329865 -0.07278,1.188382 c -0.108356,1.769364 -0.06358,5.143117 0.09576,7.215169 0.20593,2.677897 0.276444,5.564716 0.15021,6.149548 -0.118067,0.546999 -0.385931,0.906824 -0.956313,1.28463 -0.367393,0.243351 -0.483997,0.268392 -1.57857,0.338997 -1.142267,0.07368 -1.8142,0.07796 -3.324731,0.02118 z"
       id="path3394"
       inkscape:connector-curvature="0"
       transform="translate(0,988.36216)" />
  </g>
</svg>
